<?xml version="1.0" encoding="utf-8"?>
<!-- Generator: Adobe Illustrator 24.0.3, SVG Export Plug-In . SVG Version: 6.00 Build 0)  -->
<svg version="1.1" id="Layer_1" xmlns="http://www.w3.org/2000/svg" xmlns:xlink="http://www.w3.org/1999/xlink" x="0px" y="0px"
	 viewBox="0 0 720 720" style="enable-background:new 0 0 720 720;" xml:space="preserve">
<style type="text/css">
	.st0{fill:#DD0979;}
	.st1{fill:#FFFFFF;}
</style>
<rect x="-1.4" y="-0.8" class="st0" width="722.2" height="722.2"/>
<g>
	<polygon class="st1" points="66.9,92.5 66.9,204.6 91.6,204.6 91.6,58.2 71.9,58.2 49.2,84.8 49.2,110.5 49.4,110.5 66.7,92.5 	"/>
	<path class="st1" d="M181.4,166.8V96c0-22.9-11.4-39.5-36.5-39.5c-24.8,0-36.3,16.6-36.3,39.5v70.8c0,22.7,11.5,39.5,36.3,39.5
		C170,206.4,181.4,189.5,181.4,166.8 M133.2,170.7V92.1c0-8.9,3.2-15.1,11.7-15.1c8.6,0,11.9,6.3,11.9,15.1v78.6
		c0,8.9-3.2,15.1-11.9,15.1C136.5,185.8,133.2,179.6,133.2,170.7"/>
</g>
<g>
	<path class="st1" d="M241.5,91.5v28h-10.3V58.4h15c10.4,0,14.2,5.1,14.2,13.7V80c0,6.6-2.3,10.5-8.2,11.8l9.8,27.8h-10.8
		L241.5,91.5z M241.5,66.8v19h3.4c3.5,0,5.1-1.8,5.1-5.1v-9c0-3.3-1.5-5-5.1-5H241.5z"/>
	<path class="st1" d="M265.9,58.4h24.5v8.4h-14.3v17.5h10.2v8.3h-10.2v18.6h14.3v8.4h-24.5V58.4z"/>
	<path class="st1" d="M326.7,74.8v28.3c0,9.4-3.9,16.4-14.9,16.4h-15.9V58.4h15.9C322.8,58.4,326.7,65.4,326.7,74.8z M310.6,111.2
		c4.2,0,5.9-2.5,5.9-6.2V73c0-3.6-1.6-6.1-5.9-6.1h-4.3v44.4H310.6z"/>
	<path class="st1" d="M362.4,58.4v46.3c0,9.5-4.1,15.6-14.5,15.6c-10.8,0-15.3-6.1-15.3-15.6V58.4h10.3v47.3c0,3.6,1.4,6,5.1,6
		c3.6,0,5.1-2.4,5.1-6V58.4H362.4z"/>
	<path class="st1" d="M368.2,103.8V74.2c0-9.6,4.5-16.5,15.3-16.5c11.4,0,14.5,6.3,14.5,15.3v7.2h-9.4v-8c0-3.8-1.3-6-5-6
		c-3.7,0-5.2,2.6-5.2,6.3v32.8c0,3.7,1.5,6.3,5.2,6.3c3.7,0,5-2.3,5-6V94.5h9.4v10.6c0,8.7-3.6,15.2-14.5,15.2
		C372.8,120.3,368.2,113.3,368.2,103.8z"/>
	<path class="st1" d="M403.7,58.4h24.5v8.4H414v17.5h10.2v8.3H414v18.6h14.3v8.4h-24.5V58.4z"/>
	<path class="st1" d="M464.5,74.8v28.3c0,9.4-3.9,16.4-14.9,16.4h-15.9V58.4h15.9C460.6,58.4,464.5,65.4,464.5,74.8z M448.3,111.2
		c4.2,0,5.9-2.5,5.9-6.2V73c0-3.6-1.6-6.1-5.9-6.1H444v44.4H448.3z"/>
	<path class="st1" d="M231.2,144.1h10.3v61.1h-10.3V144.1z"/>
	<path class="st1" d="M256.1,166.8v38.4h-8.7v-61.1h10.1l11.1,35.1v-35.1h8.6v61.1h-9L256.1,166.8z"/>
	<path class="st1" d="M283,144.1h24.5v8.4h-14.3V170h10.2v8.3h-10.2v18.6h14.3v8.4H283V144.1z"/>
	<path class="st1" d="M323.9,209.4v-4.2c-8.2-1.4-11.7-7.5-11.7-15.8v-29.6c0-9.6,4.7-16.5,15.5-16.5c10.9,0,15.6,6.9,15.6,16.5
		v29.6c0,6.7-2.3,11.9-7.6,14.4l7.6,1.4v7.7L323.9,209.4z M333,191.6v-33.4c0-3.7-1.6-6.3-5.3-6.3c-3.6,0-5.2,2.6-5.2,6.3v33.4
		c0,3.6,1.6,6.3,5.2,6.3C331.4,197.9,333,195.2,333,191.6z"/>
	<path class="st1" d="M379,144.1v46.3c0,9.5-4.1,15.6-14.5,15.6c-10.8,0-15.3-6.1-15.3-15.6v-46.3h10.3v47.3c0,3.6,1.4,6,5.1,6
		c3.6,0,5-2.4,5-6v-47.3H379z"/>
	<path class="st1" d="M381.9,205.2l11.5-61.1h11.7l11.6,61.1h-10.5l-1.9-11.2h-10.9l-1.8,11.2H381.9z M394.8,185.8h8.2l-4.1-24.5
		h-0.1L394.8,185.8z"/>
	<path class="st1" d="M421,144.1h10.3v52.8h12.3v8.4H421V144.1z"/>
	<path class="st1" d="M448.2,144.1h10.3v61.1h-10.3V144.1z"/>
	<path class="st1" d="M463.3,144.1h27.3v8.4h-8.5v52.8h-10.4v-52.8h-8.5V144.1z"/>
	<path class="st1" d="M495.4,144.1h10.3v61.1h-10.3V144.1z"/>
	<path class="st1" d="M511.6,144.1h24.5v8.4h-14.3V170h10.2v8.3h-10.2v18.6h14.3v8.4h-24.5V144.1z"/>
	<path class="st1" d="M540.7,192.1v-8.2h9.6v8.4c0,3.4,1.5,5.4,5.1,5.4c3.2,0,4.7-2.2,4.7-5.4v-2.3c0-3.5-1.4-5.7-4.6-8.7l-6-6
		c-5.9-5.8-8.6-9.3-8.6-16.3v-2.1c0-7.6,4.4-13.4,14.4-13.4c10.3,0,14.3,5.1,14.3,13.9v5h-9.4v-5.3c0-3.5-1.6-5.2-4.9-5.2
		c-2.9,0-4.9,1.6-4.9,5.1v1.3c0,3.4,1.9,5.4,4.9,8.3l6.6,6.5c5.6,5.7,8.3,9.1,8.3,15.9v3c0,8.4-4.5,14.3-15,14.3
		C544.7,206,540.7,200.1,540.7,192.1z"/>
</g>
<g>
	<g>
		<path class="st1" d="M426.7,473h-133c-0.8,0-1.4,0.7-1.4,1.6v40c0,0.9,0.6,1.6,1.4,1.6h133c0.8,0,1.5-0.7,1.5-1.6v-40
			C428.2,473.8,427.5,473,426.7,473"/>
		<path class="st1" d="M426.7,388h-133c-0.8,0-1.4,0.7-1.4,1.6v40c0,0.9,0.6,1.6,1.4,1.6h133c0.8,0,1.5-0.7,1.5-1.6v-40
			C428.2,388.7,427.5,388,426.7,388"/>
	</g>
	<g>
		<path class="st1" d="M424.8,327.6L361,263.7c-0.4-0.4-1.1-0.4-1.6,0l-63.8,63.8c-0.7,0.7-0.2,1.9,0.8,1.9H424
			C425,329.5,425.5,328.3,424.8,327.6z"/>
		<path class="st1" d="M484.7,516.7l63.8-63.8c0.4-0.4,0.4-1.1,0-1.6l-63.8-63.8c-0.7-0.7-1.9-0.2-1.9,0.8V516
			C482.9,516.9,484.1,517.4,484.7,516.7z"/>
		<path class="st1" d="M295.6,576.7l63.8,63.8c0.4,0.4,1.1,0.4,1.6,0l63.8-63.8c0.7-0.7,0.2-1.9-0.8-1.9H296.4
			C295.4,574.8,294.9,576,295.6,576.7z"/>
		<path class="st1" d="M235.7,387.5l-63.8,63.8c-0.4,0.4-0.4,1.1,0,1.6l63.8,63.8c0.7,0.7,1.9,0.2,1.9-0.8V388.3
			C237.5,387.3,236.3,386.8,235.7,387.5z"/>
	</g>
</g>
</svg>
